<?xml version="1.0" encoding="UTF-8"?>
<svg id="Capa_2" data-name="Capa 2" xmlns="http://www.w3.org/2000/svg" viewBox="0 0 250 250">
  <defs>
    <style>
      .cls-1 {
        fill: #fff;
      }

      .cls-2 {
        fill: #e6007e;
      }
    </style>
  </defs>
  <g id="Capa_3" data-name="Capa 3">
    <g>
      <g>
        <polygon points="250 125 230.67 153.32 233.27 187.51 202.34 202.34 187.51 233.27 153.32 230.67 125 250 96.68 230.67 62.49 233.27 47.66 202.34 16.73 187.51 19.33 153.32 0 125 19.33 96.68 16.73 62.49 47.66 47.66 62.49 16.73 96.68 19.33 125 0 153.32 19.33 187.51 16.73 202.34 47.66 233.27 62.49 230.67 96.68 250 125"/>
        <polygon class="cls-2" points="250 125 230.67 153.32 233.27 187.51 202.34 202.34 187.51 233.27 153.32 230.67 125 250 96.68 230.67 62.49 233.27 47.66 202.34 16.73 187.51 19.33 153.32 0 125 19.33 96.68 16.73 62.49 47.66 47.66 62.49 16.73 96.68 19.33 125 0 153.32 19.33 187.51 16.73 202.34 47.66 233.27 62.49 230.67 96.68 250 125"/>
      </g>
      <g>
        <g>
          <path class="cls-1" d="M140.97,130.69c-1.74-2.37-4.29-3.91-7.18-4.35-2.89-.44-5.78.28-8.13,2.03-1.24.92-4.63,3.06-9.18,2.91-3.86-.12-6.73-1.8-8.1-2.8-1.88-1.37-4.1-2.08-6.38-2.08-.59,0-1.18.05-1.77.15-.64.11-1.27.26-1.87.47h0c-.67.63-1.65,1.82-1.83,3.44-.18,1.68.54,3.32,1.3,4.13,1.45,1.58,4.04,1.19,8.47.38,4.22-.77,9.48-1.74,15.74-.7,2.5.41,4.96,1.12,7.35,2.1l2.23-2.54c.28-.32.71-.47,1.13-.39.42.07.77.37.92.76l1.38,3.59c1.57-.04,3.12-.25,4.63-.65,1.15-.3,2.27-.69,3.36-1.19-.21-1.89-.92-3.7-2.07-5.27ZM140.97,130.69c-1.74-2.37-4.29-3.91-7.18-4.35-2.89-.44-5.78.28-8.13,2.03-1.24.92-4.63,3.06-9.18,2.91-3.86-.12-6.73-1.8-8.1-2.8-1.88-1.37-4.1-2.08-6.38-2.08-.59,0-1.18.05-1.77.15-.64.11-1.27.26-1.87.47h0c-.67.63-1.65,1.82-1.83,3.44-.18,1.68.54,3.32,1.3,4.13,1.45,1.58,4.04,1.19,8.47.38,4.22-.77,9.48-1.74,15.74-.7,2.5.41,4.96,1.12,7.35,2.1l2.23-2.54c.28-.32.71-.47,1.13-.39.42.07.77.37.92.76l1.38,3.59c1.57-.04,3.12-.25,4.63-.65,1.15-.3,2.27-.69,3.36-1.19-.21-1.89-.92-3.7-2.07-5.27ZM140.97,130.69c-1.74-2.37-4.29-3.91-7.18-4.35-2.89-.44-5.78.28-8.13,2.03-1.24.92-4.63,3.06-9.18,2.91-3.86-.12-6.73-1.8-8.1-2.8-1.88-1.37-4.1-2.08-6.38-2.08-.59,0-1.18.05-1.77.15-.64.11-1.27.26-1.87.47h0c-.67.63-1.65,1.82-1.83,3.44-.18,1.68.54,3.32,1.3,4.13,1.45,1.58,4.04,1.19,8.47.38,4.22-.77,9.48-1.74,15.74-.7,2.5.41,4.96,1.12,7.35,2.1l2.23-2.54c.28-.32.71-.47,1.13-.39.42.07.77.37.92.76l1.38,3.59c1.57-.04,3.12-.25,4.63-.65,1.15-.3,2.27-.69,3.36-1.19-.21-1.89-.92-3.7-2.07-5.27ZM140.97,130.69c-1.74-2.37-4.29-3.91-7.18-4.35-2.89-.44-5.78.28-8.13,2.03-1.24.92-4.63,3.06-9.18,2.91-3.86-.12-6.73-1.8-8.1-2.8-1.88-1.37-4.1-2.08-6.38-2.08-.59,0-1.18.05-1.77.15-.64.11-1.27.26-1.87.47h0c-.67.63-1.65,1.82-1.83,3.44-.18,1.68.54,3.32,1.3,4.13,1.45,1.58,4.04,1.19,8.47.38,4.22-.77,9.48-1.74,15.74-.7,2.5.41,4.96,1.12,7.35,2.1l2.23-2.54c.28-.32.71-.47,1.13-.39.42.07.77.37.92.76l1.38,3.59c1.57-.04,3.12-.25,4.63-.65,1.15-.3,2.27-.69,3.36-1.19-.21-1.89-.92-3.7-2.07-5.27ZM140.97,130.69c-1.74-2.37-4.29-3.91-7.18-4.35-2.89-.44-5.78.28-8.13,2.03-1.24.92-4.63,3.06-9.18,2.91-3.86-.12-6.73-1.8-8.1-2.8-1.88-1.37-4.1-2.08-6.38-2.08-.59,0-1.18.05-1.77.15-.64.11-1.27.26-1.87.47h0c-.67.63-1.65,1.82-1.83,3.44-.18,1.68.54,3.32,1.3,4.13,1.45,1.58,4.04,1.19,8.47.38,4.22-.77,9.48-1.74,15.74-.7,2.5.41,4.96,1.12,7.35,2.1l2.23-2.54c.28-.32.71-.47,1.13-.39.42.07.77.37.92.76l1.38,3.59c1.57-.04,3.12-.25,4.63-.65,1.15-.3,2.27-.69,3.36-1.19-.21-1.89-.92-3.7-2.07-5.27ZM140.97,130.69c-1.74-2.37-4.29-3.91-7.18-4.35-2.89-.44-5.78.28-8.13,2.03-1.24.92-4.63,3.06-9.18,2.91-3.86-.12-6.73-1.8-8.1-2.8-1.88-1.37-4.1-2.08-6.38-2.08-.59,0-1.18.05-1.77.15-.64.11-1.27.26-1.87.47h0c-.67.63-1.65,1.82-1.83,3.44-.18,1.68.54,3.32,1.3,4.13,1.45,1.58,4.04,1.19,8.47.38,4.22-.77,9.48-1.74,15.74-.7,2.5.41,4.96,1.12,7.35,2.1l2.23-2.54c.28-.32.71-.47,1.13-.39.42.07.77.37.92.76l1.38,3.59c1.57-.04,3.12-.25,4.63-.65,1.15-.3,2.27-.69,3.36-1.19-.21-1.89-.92-3.7-2.07-5.27ZM140.97,130.69c-1.74-2.37-4.29-3.91-7.18-4.35-2.89-.44-5.78.28-8.13,2.03-1.24.92-4.63,3.06-9.18,2.91-3.86-.12-6.73-1.8-8.1-2.8-1.88-1.37-4.1-2.08-6.38-2.08-.59,0-1.18.05-1.77.15-.64.11-1.27.26-1.87.47h0c-.67.63-1.65,1.82-1.83,3.44-.18,1.68.54,3.32,1.3,4.13,1.45,1.58,4.04,1.19,8.47.38,4.22-.77,9.48-1.74,15.74-.7,2.5.41,4.96,1.12,7.35,2.1l2.23-2.54c.28-.32.71-.47,1.13-.39.42.07.77.37.92.76l1.38,3.59c1.57-.04,3.12-.25,4.63-.65,1.15-.3,2.27-.69,3.36-1.19-.21-1.89-.92-3.7-2.07-5.27ZM140.97,130.69c-1.74-2.37-4.29-3.91-7.18-4.35-2.89-.44-5.78.28-8.13,2.03-1.24.92-4.63,3.06-9.18,2.91-3.86-.12-6.73-1.8-8.1-2.8-1.88-1.37-4.1-2.08-6.38-2.08-.59,0-1.18.05-1.77.15-.64.11-1.27.26-1.87.47h0c-.67.63-1.65,1.82-1.83,3.44-.18,1.68.54,3.32,1.3,4.13,1.45,1.58,4.04,1.19,8.47.38,4.22-.77,9.48-1.74,15.74-.7,2.5.41,4.96,1.12,7.35,2.1l2.23-2.54c.28-.32.71-.47,1.13-.39.42.07.77.37.92.76l1.38,3.59c1.57-.04,3.12-.25,4.63-.65,1.15-.3,2.27-.69,3.36-1.19-.21-1.89-.92-3.7-2.07-5.27ZM140.97,130.69c-1.74-2.37-4.29-3.91-7.18-4.35-2.89-.44-5.78.28-8.13,2.03-1.24.92-4.63,3.06-9.18,2.91-3.86-.12-6.73-1.8-8.1-2.8-1.88-1.37-4.1-2.08-6.38-2.08-.59,0-1.18.05-1.77.15-.64.11-1.27.26-1.87.47h0c-.67.63-1.65,1.82-1.83,3.44-.18,1.68.54,3.32,1.3,4.13,1.45,1.58,4.04,1.19,8.47.38,4.22-.77,9.48-1.74,15.74-.7,2.5.41,4.96,1.12,7.35,2.1l2.23-2.54c.28-.32.71-.47,1.13-.39.42.07.77.37.92.76l1.38,3.59c1.57-.04,3.12-.25,4.63-.65,1.15-.3,2.27-.69,3.36-1.19-.21-1.89-.92-3.7-2.07-5.27ZM140.97,130.69c-1.74-2.37-4.29-3.91-7.18-4.35-2.89-.44-5.78.28-8.13,2.03-1.24.92-4.63,3.06-9.18,2.91-3.86-.12-6.73-1.8-8.1-2.8-1.88-1.37-4.1-2.08-6.38-2.08-.59,0-1.18.05-1.77.15-.64.11-1.27.26-1.87.47h0c-.67.63-1.65,1.82-1.83,3.44-.18,1.68.54,3.32,1.3,4.13,1.45,1.58,4.04,1.19,8.47.38,4.22-.77,9.48-1.74,15.74-.7,2.5.41,4.96,1.12,7.35,2.1l2.23-2.54c.28-.32.71-.47,1.13-.39.42.07.77.37.92.76l1.38,3.59c1.57-.04,3.12-.25,4.63-.65,1.15-.3,2.27-.69,3.36-1.19-.21-1.89-.92-3.7-2.07-5.27ZM140.97,130.69c-1.74-2.37-4.29-3.91-7.18-4.35-2.89-.44-5.78.28-8.13,2.03-1.24.92-4.63,3.06-9.18,2.91-3.86-.12-6.73-1.8-8.1-2.8-1.88-1.37-4.1-2.08-6.38-2.08-.59,0-1.18.05-1.77.15-.64.11-1.27.26-1.87.47h0c-.67.63-1.65,1.82-1.83,3.44-.18,1.68.54,3.32,1.3,4.13,1.45,1.58,4.04,1.19,8.47.38,4.22-.77,9.48-1.74,15.74-.7,2.5.41,4.96,1.12,7.35,2.1l2.23-2.54c.28-.32.71-.47,1.13-.39.42.07.77.37.92.76l1.38,3.59c1.57-.04,3.12-.25,4.63-.65,1.15-.3,2.27-.69,3.36-1.19-.21-1.89-.92-3.7-2.07-5.27ZM140.97,130.69c-1.74-2.37-4.29-3.91-7.18-4.35-2.89-.44-5.78.28-8.13,2.03-1.24.92-4.63,3.06-9.18,2.91-3.86-.12-6.73-1.8-8.1-2.8-1.88-1.37-4.1-2.08-6.38-2.08-.59,0-1.18.05-1.77.15-.64.11-1.27.26-1.87.47h0c-.67.63-1.65,1.82-1.83,3.44-.18,1.68.54,3.32,1.3,4.13,1.45,1.58,4.04,1.19,8.47.38,4.22-.77,9.48-1.74,15.74-.7,2.5.41,4.96,1.12,7.35,2.1l2.23-2.54c.28-.32.71-.47,1.13-.39.42.07.77.37.92.76l1.38,3.59c1.57-.04,3.12-.25,4.63-.65,1.15-.3,2.27-.69,3.36-1.19-.21-1.89-.92-3.7-2.07-5.27ZM140.97,130.69c-1.74-2.37-4.29-3.91-7.18-4.35-2.89-.44-5.78.28-8.13,2.03-1.24.92-4.63,3.06-9.18,2.91-3.86-.12-6.73-1.8-8.1-2.8-1.88-1.37-4.1-2.08-6.38-2.08-.59,0-1.18.05-1.77.15-.64.11-1.27.26-1.87.47h0c-.67.63-1.65,1.82-1.83,3.44-.18,1.68.54,3.32,1.3,4.13,1.45,1.58,4.04,1.19,8.47.38,4.22-.77,9.48-1.74,15.74-.7,2.5.41,4.96,1.12,7.35,2.1l2.23-2.54c.28-.32.71-.47,1.13-.39.42.07.77.37.92.76l1.38,3.59c1.57-.04,3.12-.25,4.63-.65,1.15-.3,2.27-.69,3.36-1.19-.21-1.89-.92-3.7-2.07-5.27ZM123.95,148.91c-2.22.19-3.88.86-4.8,1.92-.42.49-.68.96-.99,1.51-.17.3-.34.61-.55.95,5.46-.1,10.14-1.43,13.84-3.04-.77-2.26-2.59-6.1-6.55-8.58-4.54-2.83-11.7-3.64-16.62.29-2.46,1.97-5.03,5.65-4.94,8.68.02.72.19,1.4.56,2.02.26.43.58.81.97,1.15,1.65,1.45,4.32,1.98,6.34,1.51.17-.04.33-.09.49-.14,1.04-.34,2.12-1.16,2.89-1.96.17-.18.33-.36.47-.52.43-.53.71-1.02,1-1.55.34-.61.7-1.24,1.28-1.92,1.36-1.57,3.52-2.5,6.43-2.75.67-.05,1.26.44,1.32,1.11.06.67-.44,1.26-1.11,1.32ZM140.97,130.69c-1.74-2.37-4.29-3.91-7.18-4.35-2.89-.44-5.78.28-8.13,2.03-1.24.92-4.63,3.06-9.18,2.91-3.86-.12-6.73-1.8-8.1-2.8-1.88-1.37-4.1-2.08-6.38-2.08-.59,0-1.18.05-1.77.15-.64.11-1.27.26-1.87.47h0c-.67.63-1.65,1.82-1.83,3.44-.18,1.68.54,3.32,1.3,4.13,1.45,1.58,4.04,1.19,8.47.38,4.22-.77,9.48-1.74,15.74-.7,2.5.41,4.96,1.12,7.35,2.1l2.23-2.54c.28-.32.71-.47,1.13-.39.42.07.77.37.92.76l1.38,3.59c1.57-.04,3.12-.25,4.63-.65,1.15-.3,2.27-.69,3.36-1.19-.21-1.89-.92-3.7-2.07-5.27ZM140.97,130.69c-1.74-2.37-4.29-3.91-7.18-4.35-2.89-.44-5.78.28-8.13,2.03-1.24.92-4.63,3.06-9.18,2.91-3.86-.12-6.73-1.8-8.1-2.8-1.88-1.37-4.1-2.08-6.38-2.08-.59,0-1.18.05-1.77.15-.64.11-1.27.26-1.87.47h0c-.67.63-1.65,1.82-1.83,3.44-.18,1.68.54,3.32,1.3,4.13,1.45,1.58,4.04,1.19,8.47.38,4.22-.77,9.48-1.74,15.74-.7,2.5.41,4.96,1.12,7.35,2.1l2.23-2.54c.28-.32.71-.47,1.13-.39.42.07.77.37.92.76l1.38,3.59c1.57-.04,3.12-.25,4.63-.65,1.15-.3,2.27-.69,3.36-1.19-.21-1.89-.92-3.7-2.07-5.27ZM123.95,148.91c-2.22.19-3.88.86-4.8,1.92-.42.49-.68.96-.99,1.51-.17.3-.34.61-.55.95,5.46-.1,10.14-1.43,13.84-3.04-.77-2.26-2.59-6.1-6.55-8.58-4.54-2.83-11.7-3.64-16.62.29-2.46,1.97-5.03,5.65-4.94,8.68.02.72.19,1.4.56,2.02.26.43.58.81.97,1.15,1.65,1.45,4.32,1.98,6.34,1.51.17-.04.33-.09.49-.14,1.04-.34,2.12-1.16,2.89-1.96.17-.18.33-.36.47-.52.43-.53.71-1.02,1-1.55.34-.61.7-1.24,1.28-1.92,1.36-1.57,3.52-2.5,6.43-2.75.67-.05,1.26.44,1.32,1.11.06.67-.44,1.26-1.11,1.32ZM123.95,148.91c-2.22.19-3.88.86-4.8,1.92-.42.49-.68.96-.99,1.51-.17.3-.34.61-.55.95,5.46-.1,10.14-1.43,13.84-3.04-.77-2.26-2.59-6.1-6.55-8.58-4.54-2.83-11.7-3.64-16.62.29-2.46,1.97-5.03,5.65-4.94,8.68.02.72.19,1.4.56,2.02.26.43.58.81.97,1.15,1.65,1.45,4.32,1.98,6.34,1.51.17-.04.33-.09.49-.14,1.04-.34,2.12-1.16,2.89-1.96.17-.18.33-.36.47-.52.43-.53.71-1.02,1-1.55.34-.61.7-1.24,1.28-1.92,1.36-1.57,3.52-2.5,6.43-2.75.67-.05,1.26.44,1.32,1.11.06.67-.44,1.26-1.11,1.32ZM140.97,130.69c-1.74-2.37-4.29-3.91-7.18-4.35-2.89-.44-5.78.28-8.13,2.03-1.24.92-4.63,3.06-9.18,2.91-3.86-.12-6.73-1.8-8.1-2.8-1.88-1.37-4.1-2.08-6.38-2.08-.59,0-1.18.05-1.77.15-.64.11-1.27.26-1.87.47h0c-.67.63-1.65,1.82-1.83,3.44-.18,1.68.54,3.32,1.3,4.13,1.45,1.58,4.04,1.19,8.47.38,4.22-.77,9.48-1.74,15.74-.7,2.5.41,4.96,1.12,7.35,2.1l2.23-2.54c.28-.32.71-.47,1.13-.39.42.07.77.37.92.76l1.38,3.59c1.57-.04,3.12-.25,4.63-.65,1.15-.3,2.27-.69,3.36-1.19-.21-1.89-.92-3.7-2.07-5.27ZM140.97,130.69c-1.74-2.37-4.29-3.91-7.18-4.35-2.89-.44-5.78.28-8.13,2.03-1.24.92-4.63,3.06-9.18,2.91-3.86-.12-6.73-1.8-8.1-2.8-1.88-1.37-4.1-2.08-6.38-2.08-.59,0-1.18.05-1.77.15-.64.11-1.27.26-1.87.47h0c-.67.63-1.65,1.82-1.83,3.44-.18,1.68.54,3.32,1.3,4.13,1.45,1.58,4.04,1.19,8.47.38,4.22-.77,9.48-1.74,15.74-.7,2.5.41,4.96,1.12,7.35,2.1l2.23-2.54c.28-.32.71-.47,1.13-.39.42.07.77.37.92.76l1.38,3.59c1.57-.04,3.12-.25,4.63-.65,1.15-.3,2.27-.69,3.36-1.19-.21-1.89-.92-3.7-2.07-5.27ZM123.95,148.91c-2.22.19-3.88.86-4.8,1.92-.42.49-.68.96-.99,1.51-.17.3-.34.61-.55.95,5.46-.1,10.14-1.43,13.84-3.04-.77-2.26-2.59-6.1-6.55-8.58-4.54-2.83-11.7-3.64-16.62.29-2.46,1.97-5.03,5.65-4.94,8.68.02.72.19,1.4.56,2.02.26.43.58.81.97,1.15,1.65,1.45,4.32,1.98,6.34,1.51.17-.04.33-.09.49-.14,1.04-.34,2.12-1.16,2.89-1.96.17-.18.33-.36.47-.52.43-.53.71-1.02,1-1.55.34-.61.7-1.24,1.28-1.92,1.36-1.57,3.52-2.5,6.43-2.75.67-.05,1.26.44,1.32,1.11.06.67-.44,1.26-1.11,1.32ZM123.95,148.91c-2.22.19-3.88.86-4.8,1.92-.42.49-.68.96-.99,1.51-.17.3-.34.61-.55.95,5.46-.1,10.14-1.43,13.84-3.04-.77-2.26-2.59-6.1-6.55-8.58-4.54-2.83-11.7-3.64-16.62.29-2.46,1.97-5.03,5.65-4.94,8.68.02.72.19,1.4.56,2.02.26.43.58.81.97,1.15,1.65,1.45,4.32,1.98,6.34,1.51.17-.04.33-.09.49-.14,1.04-.34,2.12-1.16,2.89-1.96.17-.18.33-.36.47-.52.43-.53.71-1.02,1-1.55.34-.61.7-1.24,1.28-1.92,1.36-1.57,3.52-2.5,6.43-2.75.67-.05,1.26.44,1.32,1.11.06.67-.44,1.26-1.11,1.32ZM140.97,130.69c-1.74-2.37-4.29-3.91-7.18-4.35-2.89-.44-5.78.28-8.13,2.03-1.24.92-4.63,3.06-9.18,2.91-3.86-.12-6.73-1.8-8.1-2.8-1.88-1.37-4.1-2.08-6.38-2.08-.59,0-1.18.05-1.77.15-.64.11-1.27.26-1.87.47h0c-.67.63-1.65,1.82-1.83,3.44-.18,1.68.54,3.32,1.3,4.13,1.45,1.58,4.04,1.19,8.47.38,4.22-.77,9.48-1.74,15.74-.7,2.5.41,4.96,1.12,7.35,2.1l2.23-2.54c.28-.32.71-.47,1.13-.39.42.07.77.37.92.76l1.38,3.59c1.57-.04,3.12-.25,4.63-.65,1.15-.3,2.27-.69,3.36-1.19-.21-1.89-.92-3.7-2.07-5.27ZM140.97,130.69c-1.74-2.37-4.29-3.91-7.18-4.35-2.89-.44-5.78.28-8.13,2.03-1.24.92-4.63,3.06-9.18,2.91-3.86-.12-6.73-1.8-8.1-2.8-1.88-1.37-4.1-2.08-6.38-2.08-.59,0-1.18.05-1.77.15-.64.11-1.27.26-1.87.47h0c-.67.63-1.65,1.82-1.83,3.44-.18,1.68.54,3.32,1.3,4.13,1.45,1.58,4.04,1.19,8.47.38,4.22-.77,9.48-1.74,15.74-.7,2.5.41,4.96,1.12,7.35,2.1l2.23-2.54c.28-.32.71-.47,1.13-.39.42.07.77.37.92.76l1.38,3.59c1.57-.04,3.12-.25,4.63-.65,1.15-.3,2.27-.69,3.36-1.19-.21-1.89-.92-3.7-2.07-5.27ZM123.95,148.91c-2.22.19-3.88.86-4.8,1.92-.42.49-.68.96-.99,1.51-.17.3-.34.61-.55.95,5.46-.1,10.14-1.43,13.84-3.04-.77-2.26-2.59-6.1-6.55-8.58-4.54-2.83-11.7-3.64-16.62.29-2.46,1.97-5.03,5.65-4.94,8.68.02.72.19,1.4.56,2.02.26.43.58.81.97,1.15,1.65,1.45,4.32,1.98,6.34,1.51.17-.04.33-.09.49-.14,1.04-.34,2.12-1.16,2.89-1.96.17-.18.33-.36.47-.52.43-.53.71-1.02,1-1.55.34-.61.7-1.24,1.28-1.92,1.36-1.57,3.52-2.5,6.43-2.75.67-.05,1.26.44,1.32,1.11.06.67-.44,1.26-1.11,1.32ZM123.95,148.91c-2.22.19-3.88.86-4.8,1.92-.42.49-.68.96-.99,1.51-.17.3-.34.61-.55.95,5.46-.1,10.14-1.43,13.84-3.04-.77-2.26-2.59-6.1-6.55-8.58-4.54-2.83-11.7-3.64-16.62.29-2.46,1.97-5.03,5.65-4.94,8.68.02.72.19,1.4.56,2.02.26.43.58.81.97,1.15,1.65,1.45,4.32,1.98,6.34,1.51.17-.04.33-.09.49-.14,1.04-.34,2.12-1.16,2.89-1.96.17-.18.33-.36.47-.52.43-.53.71-1.02,1-1.55.34-.61.7-1.24,1.28-1.92,1.36-1.57,3.52-2.5,6.43-2.75.67-.05,1.26.44,1.32,1.11.06.67-.44,1.26-1.11,1.32ZM140.97,130.69c-1.74-2.37-4.29-3.91-7.18-4.35-2.89-.44-5.78.28-8.13,2.03-1.24.92-4.63,3.06-9.18,2.91-3.86-.12-6.73-1.8-8.1-2.8-1.88-1.37-4.1-2.08-6.38-2.08-.59,0-1.18.05-1.77.15-.64.11-1.27.26-1.87.47h0c-.67.63-1.65,1.82-1.83,3.44-.18,1.68.54,3.32,1.3,4.13,1.45,1.58,4.04,1.19,8.47.38,4.22-.77,9.48-1.74,15.74-.7,2.5.41,4.96,1.12,7.35,2.1l2.23-2.54c.28-.32.71-.47,1.13-.39.42.07.77.37.92.76l1.38,3.59c1.57-.04,3.12-.25,4.63-.65,1.15-.3,2.27-.69,3.36-1.19-.21-1.89-.92-3.7-2.07-5.27ZM140.97,130.69c-1.74-2.37-4.29-3.91-7.18-4.35-2.89-.44-5.78.28-8.13,2.03-1.24.92-4.63,3.06-9.18,2.91-3.86-.12-6.73-1.8-8.1-2.8-1.88-1.37-4.1-2.08-6.38-2.08-.59,0-1.18.05-1.77.15-.64.11-1.27.26-1.87.47h0c-.67.63-1.65,1.82-1.83,3.44-.18,1.68.54,3.32,1.3,4.13,1.45,1.58,4.04,1.19,8.47.38,4.22-.77,9.48-1.74,15.74-.7,2.5.41,4.96,1.12,7.35,2.1l2.23-2.54c.28-.32.71-.47,1.13-.39.42.07.77.37.92.76l1.38,3.59c1.57-.04,3.12-.25,4.63-.65,1.15-.3,2.27-.69,3.36-1.19-.21-1.89-.92-3.7-2.07-5.27ZM123.95,148.91c-2.22.19-3.88.86-4.8,1.92-.42.49-.68.96-.99,1.51-.17.3-.34.61-.55.95,5.46-.1,10.14-1.43,13.84-3.04-.77-2.26-2.59-6.1-6.55-8.58-4.54-2.83-11.7-3.64-16.62.29-2.46,1.97-5.03,5.65-4.94,8.68.02.72.19,1.4.56,2.02.26.43.58.81.97,1.15,1.65,1.45,4.32,1.98,6.34,1.51.17-.04.33-.09.49-.14,1.04-.34,2.12-1.16,2.89-1.96.17-.18.33-.36.47-.52.43-.53.71-1.02,1-1.55.34-.61.7-1.24,1.28-1.92,1.36-1.57,3.52-2.5,6.43-2.75.67-.05,1.26.44,1.32,1.11.06.67-.44,1.26-1.11,1.32ZM123.95,148.91c-2.22.19-3.88.86-4.8,1.92-.42.49-.68.96-.99,1.51-.17.3-.34.61-.55.95,5.46-.1,10.14-1.43,13.84-3.04-.77-2.26-2.59-6.1-6.55-8.58-4.54-2.83-11.7-3.64-16.62.29-2.46,1.97-5.03,5.65-4.94,8.68.02.72.19,1.4.56,2.02.26.43.58.81.97,1.15,1.65,1.45,4.32,1.98,6.34,1.51.17-.04.33-.09.49-.14,1.04-.34,2.12-1.16,2.89-1.96.17-.18.33-.36.47-.52.43-.53.71-1.02,1-1.55.34-.61.7-1.24,1.28-1.92,1.36-1.57,3.52-2.5,6.43-2.75.67-.05,1.26.44,1.32,1.11.06.67-.44,1.26-1.11,1.32ZM140.97,130.69c-1.74-2.37-4.29-3.91-7.18-4.35-2.89-.44-5.78.28-8.13,2.03-1.24.92-4.63,3.06-9.18,2.91-3.86-.12-6.73-1.8-8.1-2.8-1.88-1.37-4.1-2.08-6.38-2.08-.59,0-1.18.05-1.77.15-.64.11-1.27.26-1.87.47h0c-.67.63-1.65,1.82-1.83,3.44-.18,1.68.54,3.32,1.3,4.13,1.45,1.58,4.04,1.19,8.47.38,4.22-.77,9.48-1.74,15.74-.7,2.5.41,4.96,1.12,7.35,2.1l2.23-2.54c.28-.32.71-.47,1.13-.39.42.07.77.37.92.76l1.38,3.59c1.57-.04,3.12-.25,4.63-.65,1.15-.3,2.27-.69,3.36-1.19-.21-1.89-.92-3.7-2.07-5.27ZM140.97,130.69c-1.74-2.37-4.29-3.91-7.18-4.35-2.89-.44-5.78.28-8.13,2.03-1.24.92-4.63,3.06-9.18,2.91-3.86-.12-6.73-1.8-8.1-2.8-1.88-1.37-4.1-2.08-6.38-2.08-.59,0-1.18.05-1.77.15-.64.11-1.27.26-1.87.47h0c-.67.63-1.65,1.82-1.83,3.44-.18,1.68.54,3.32,1.3,4.13,1.45,1.58,4.04,1.19,8.47.38,4.22-.77,9.48-1.74,15.74-.7,2.5.41,4.96,1.12,7.35,2.1l2.23-2.54c.28-.32.71-.47,1.13-.39.42.07.77.37.92.76l1.38,3.59c1.57-.04,3.12-.25,4.63-.65,1.15-.3,2.27-.69,3.36-1.19-.21-1.89-.92-3.7-2.07-5.27ZM124.89,141.66c-4.54-2.83-11.7-3.64-16.62.29-2.46,1.97-5.03,5.65-4.94,8.68.02.72.19,1.4.56,2.02.26.43.58.81.97,1.15,1.65,1.45,4.32,1.98,6.34,1.51.17-.04.33-.09.49-.14,1.04-.34,2.12-1.16,2.89-1.96.17-.18.33-.36.47-.52.43-.53.71-1.02,1-1.55.34-.61.7-1.24,1.28-1.92,1.36-1.57,3.52-2.5,6.43-2.75.67-.05,1.26.44,1.32,1.11.06.67-.44,1.26-1.11,1.32-2.22.19-3.88.86-4.8,1.92-.42.49-.68.96-.99,1.51-.17.3-.34.61-.55.95,5.46-.1,10.14-1.43,13.84-3.04-.77-2.26-2.59-6.1-6.55-8.58ZM168.5,125.8c-1.09-.73-2.45-1.03-3.97-.87-.28.03-.58.08-.87.14l-2.17,1.59c-.1.07-.21.15-.32.22-1.09.72-2.3,1.07-3.5,1.07-1.42,0-2.84-.49-4.04-1.46-2.28-1.85-3.08-4.8-2.04-7.52l2.2-5.74c.47-1.23.26-2.63-.56-3.66-4.51-5.73-12.42-13.42-24.55-17.56-13.89-4.75-26.39-2.51-34.37.17-9.47,7.78-15.52,19.61-15.52,32.83,0,23.38,18.93,42.41,42.19,42.41,12.79,0,24.57-5.63,32.62-15.51-.67-.22-1.3-.53-1.89-.92-.55-.37-1.06-.82-1.5-1.33-.44-.51-.39-1.28.12-1.72.51-.44,1.28-.39,1.72.12.3.35.64.65,1.02.9,1.79,1.21,4.27,1.22,6.98.04,2.89-1.26,5.65-3.7,7.76-6.87,2.11-3.17,3.31-6.66,3.37-9.83.06-2.97-.9-5.27-2.69-6.48ZM128.09,105.54c.73-1.3,1.62-2.51,2.63-3.61,1.54-1.66,4.13-1.76,5.78-.21,1.65,1.55,1.75,4.15.21,5.81-.58.63-1.09,1.32-1.5,2.06-1.27,2.24-1.48,4.55-1.44,6.08.06,2.24-1.67,4.11-3.89,4.22-.03,0-.06,0-.09,0-2.26.06-4.14-1.73-4.2-4-.1-3.7.76-7.28,2.5-10.36ZM97.03,104.16c.73-1.29,1.62-2.51,2.63-3.61,1.54-1.66,4.13-1.76,5.78-.21,1.66,1.55,1.75,4.15.21,5.81-.58.63-1.09,1.32-1.5,2.06-1.27,2.25-1.48,4.55-1.44,6.08.06,2.24-1.67,4.11-3.89,4.22-.03,0-.06,0-.09,0-2.26.06-4.14-1.73-4.2-4-.1-3.7.77-7.28,2.5-10.36ZM145.39,139.23c-.53,3.55-2.41,6.68-5.28,8.82-1.54,1.15-3.77,2.6-6.59,3.93-.01,0-.02.01-.03.02-.03.02-.06.03-.09.04-4.24,1.99-9.82,3.7-16.45,3.7-.41,0-.82,0-1.22-.02-.09,0-.17,0-.26-.01-.87.74-1.92,1.42-3.03,1.78-.85.29-1.8.43-2.79.43-2.99,0-6.27-1.33-7.86-4.03-.29-.5-.51-1.01-.65-1.54-2.8-1.26-5.14-2.7-6.97-4.04-5.98-4.34-7.34-12.76-3.03-18.77,2.09-2.91,5.18-4.83,8.71-5.41,3.53-.57,7.06.27,9.96,2.37,1.14.83,3.54,2.23,6.75,2.33,3.79.12,6.61-1.66,7.66-2.43,2.87-2.13,6.4-3.02,9.94-2.48,3.53.53,6.65,2.42,8.77,5.31,2.12,2.89,3,6.44,2.47,9.99ZM168.84,130.65c-1.32,9.14-5.13,15.37-9.94,16.26-.35.06-.98.16-1.73.16-1.5,0-3.51-.36-4.81-2.02-2.14-2.74-.43-6.57-.36-6.73.28-.61,1-.88,1.61-.6.61.28.88,1.01.6,1.62-.01.02-1.14,2.66.06,4.2,1.14,1.45,3.69,1.06,4.19.97,3.55-.66,6.58-5.82,7.83-13.26-.49-.2-.98-.4-1.46-.6-.62-.26-.92-.97-.66-1.6.26-.62.97-.92,1.59-.66.77.32,1.55.64,2.33.95.52.21.83.75.75,1.31ZM133.79,126.34c-2.89-.44-5.78.28-8.13,2.03-1.24.92-4.63,3.06-9.18,2.91-3.86-.12-6.73-1.8-8.1-2.8-1.88-1.37-4.1-2.08-6.38-2.08-.59,0-1.18.05-1.77.15-.64.11-1.27.26-1.87.47h0c-.67.63-1.65,1.82-1.83,3.44-.18,1.68.54,3.32,1.3,4.13,1.45,1.58,4.04,1.19,8.47.38,4.22-.77,9.48-1.74,15.74-.7,2.5.41,4.96,1.12,7.35,2.1l2.23-2.54c.28-.32.71-.47,1.13-.39.42.07.77.37.92.76l1.38,3.59c1.57-.04,3.12-.25,4.63-.65,1.15-.3,2.27-.69,3.36-1.19-.21-1.89-.92-3.7-2.07-5.27-1.74-2.37-4.29-3.91-7.18-4.35ZM124.89,141.66c-4.54-2.83-11.7-3.64-16.62.29-2.46,1.97-5.03,5.65-4.94,8.68.02.72.19,1.4.56,2.02.26.43.58.81.97,1.15,1.65,1.45,4.32,1.98,6.34,1.51.17-.04.33-.09.49-.14,1.04-.34,2.12-1.16,2.89-1.96.17-.18.33-.36.47-.52.43-.53.71-1.02,1-1.55.34-.61.7-1.24,1.28-1.92,1.36-1.57,3.52-2.5,6.43-2.75.67-.05,1.26.44,1.32,1.11.06.67-.44,1.26-1.11,1.32-2.22.19-3.88.86-4.8,1.92-.42.49-.68.96-.99,1.51-.17.3-.34.61-.55.95,5.46-.1,10.14-1.43,13.84-3.04-.77-2.26-2.59-6.1-6.55-8.58ZM123.95,148.91c-2.22.19-3.88.86-4.8,1.92-.42.49-.68.96-.99,1.51-.17.3-.34.61-.55.95,5.46-.1,10.14-1.43,13.84-3.04-.77-2.26-2.59-6.1-6.55-8.58-4.54-2.83-11.7-3.64-16.62.29-2.46,1.97-5.03,5.65-4.94,8.68.02.72.19,1.4.56,2.02.26.43.58.81.97,1.15,1.65,1.45,4.32,1.98,6.34,1.51.17-.04.33-.09.49-.14,1.04-.34,2.12-1.16,2.89-1.96.17-.18.33-.36.47-.52.43-.53.71-1.02,1-1.55.34-.61.7-1.24,1.28-1.92,1.36-1.57,3.52-2.5,6.43-2.75.67-.05,1.26.44,1.32,1.11.06.67-.44,1.26-1.11,1.32ZM140.97,130.69c-1.74-2.37-4.29-3.91-7.18-4.35-2.89-.44-5.78.28-8.13,2.03-1.24.92-4.63,3.06-9.18,2.91-3.86-.12-6.73-1.8-8.1-2.8-1.88-1.37-4.1-2.08-6.38-2.08-.59,0-1.18.05-1.77.15-.64.11-1.27.26-1.87.47h0c-.67.63-1.65,1.82-1.83,3.44-.18,1.68.54,3.32,1.3,4.13,1.45,1.58,4.04,1.19,8.47.38,4.22-.77,9.48-1.74,15.74-.7,2.5.41,4.96,1.12,7.35,2.1l2.23-2.54c.28-.32.71-.47,1.13-.39.42.07.77.37.92.76l1.38,3.59c1.57-.04,3.12-.25,4.63-.65,1.15-.3,2.27-.69,3.36-1.19-.21-1.89-.92-3.7-2.07-5.27ZM140.97,130.69c-1.74-2.37-4.29-3.91-7.18-4.35-2.89-.44-5.78.28-8.13,2.03-1.24.92-4.63,3.06-9.18,2.91-3.86-.12-6.73-1.8-8.1-2.8-1.88-1.37-4.1-2.08-6.38-2.08-.59,0-1.18.05-1.77.15-.64.11-1.27.26-1.87.47h0c-.67.63-1.65,1.82-1.83,3.44-.18,1.68.54,3.32,1.3,4.13,1.45,1.58,4.04,1.19,8.47.38,4.22-.77,9.48-1.74,15.74-.7,2.5.41,4.96,1.12,7.35,2.1l2.23-2.54c.28-.32.71-.47,1.13-.39.42.07.77.37.92.76l1.38,3.59c1.57-.04,3.12-.25,4.63-.65,1.15-.3,2.27-.69,3.36-1.19-.21-1.89-.92-3.7-2.07-5.27ZM123.95,148.91c-2.22.19-3.88.86-4.8,1.92-.42.49-.68.96-.99,1.51-.17.3-.34.61-.55.95,5.46-.1,10.14-1.43,13.84-3.04-.77-2.26-2.59-6.1-6.55-8.58-4.54-2.83-11.7-3.64-16.62.29-2.46,1.97-5.03,5.65-4.94,8.68.02.72.19,1.4.56,2.02.26.43.58.81.97,1.15,1.65,1.45,4.32,1.98,6.34,1.51.17-.04.33-.09.49-.14,1.04-.34,2.12-1.16,2.89-1.96.17-.18.33-.36.47-.52.43-.53.71-1.02,1-1.55.34-.61.7-1.24,1.28-1.92,1.36-1.57,3.52-2.5,6.43-2.75.67-.05,1.26.44,1.32,1.11.06.67-.44,1.26-1.11,1.32ZM123.95,148.91c-2.22.19-3.88.86-4.8,1.92-.42.49-.68.96-.99,1.51-.17.3-.34.61-.55.95,5.46-.1,10.14-1.43,13.84-3.04-.77-2.26-2.59-6.1-6.55-8.58-4.54-2.83-11.7-3.64-16.62.29-2.46,1.97-5.03,5.65-4.94,8.68.02.72.19,1.4.56,2.02.26.43.58.81.97,1.15,1.65,1.45,4.32,1.98,6.34,1.51.17-.04.33-.09.49-.14,1.04-.34,2.12-1.16,2.89-1.96.17-.18.33-.36.47-.52.43-.53.71-1.02,1-1.55.34-.61.7-1.24,1.28-1.92,1.36-1.57,3.52-2.5,6.43-2.75.67-.05,1.26.44,1.32,1.11.06.67-.44,1.26-1.11,1.32ZM140.97,130.69c-1.74-2.37-4.29-3.91-7.18-4.35-2.89-.44-5.78.28-8.13,2.03-1.24.92-4.63,3.06-9.18,2.91-3.86-.12-6.73-1.8-8.1-2.8-1.88-1.37-4.1-2.08-6.38-2.08-.59,0-1.18.05-1.77.15-.64.11-1.27.26-1.87.47h0c-.67.63-1.65,1.82-1.83,3.44-.18,1.68.54,3.32,1.3,4.13,1.45,1.58,4.04,1.19,8.47.38,4.22-.77,9.48-1.74,15.74-.7,2.5.41,4.96,1.12,7.35,2.1l2.23-2.54c.28-.32.71-.47,1.13-.39.42.07.77.37.92.76l1.38,3.59c1.57-.04,3.12-.25,4.63-.65,1.15-.3,2.27-.69,3.36-1.19-.21-1.89-.92-3.7-2.07-5.27ZM140.97,130.69c-1.74-2.37-4.29-3.91-7.18-4.35-2.89-.44-5.78.28-8.13,2.03-1.24.92-4.63,3.06-9.18,2.91-3.86-.12-6.73-1.8-8.1-2.8-1.88-1.37-4.1-2.08-6.38-2.08-.59,0-1.18.05-1.77.15-.64.11-1.27.26-1.87.47h0c-.67.63-1.65,1.82-1.83,3.44-.18,1.68.54,3.32,1.3,4.13,1.45,1.58,4.04,1.19,8.47.38,4.22-.77,9.48-1.74,15.74-.7,2.5.41,4.96,1.12,7.35,2.1l2.23-2.54c.28-.32.71-.47,1.13-.39.42.07.77.37.92.76l1.38,3.59c1.57-.04,3.12-.25,4.63-.65,1.15-.3,2.27-.69,3.36-1.19-.21-1.89-.92-3.7-2.07-5.27ZM123.95,148.91c-2.22.19-3.88.86-4.8,1.92-.42.49-.68.96-.99,1.51-.17.3-.34.61-.55.95,5.46-.1,10.14-1.43,13.84-3.04-.77-2.26-2.59-6.1-6.55-8.58-4.54-2.83-11.7-3.64-16.62.29-2.46,1.97-5.03,5.65-4.94,8.68.02.72.19,1.4.56,2.02.26.43.58.81.97,1.15,1.65,1.45,4.32,1.98,6.34,1.51.17-.04.33-.09.49-.14,1.04-.34,2.12-1.16,2.89-1.96.17-.18.33-.36.47-.52.43-.53.71-1.02,1-1.55.34-.61.7-1.24,1.28-1.92,1.36-1.57,3.52-2.5,6.43-2.75.67-.05,1.26.44,1.32,1.11.06.67-.44,1.26-1.11,1.32ZM123.95,148.91c-2.22.19-3.88.86-4.8,1.92-.42.49-.68.96-.99,1.51-.17.3-.34.61-.55.95,5.46-.1,10.14-1.43,13.84-3.04-.77-2.26-2.59-6.1-6.55-8.58-4.54-2.83-11.7-3.64-16.62.29-2.46,1.97-5.03,5.65-4.94,8.68.02.72.19,1.4.56,2.02.26.43.58.81.97,1.15,1.65,1.45,4.32,1.98,6.34,1.51.17-.04.33-.09.49-.14,1.04-.34,2.12-1.16,2.89-1.96.17-.18.33-.36.47-.52.43-.53.71-1.02,1-1.55.34-.61.7-1.24,1.28-1.92,1.36-1.57,3.52-2.5,6.43-2.75.67-.05,1.26.44,1.32,1.11.06.67-.44,1.26-1.11,1.32ZM140.97,130.69c-1.74-2.37-4.29-3.91-7.18-4.35-2.89-.44-5.78.28-8.13,2.03-1.24.92-4.63,3.06-9.18,2.91-3.86-.12-6.73-1.8-8.1-2.8-1.88-1.37-4.1-2.08-6.38-2.08-.59,0-1.18.05-1.77.15-.64.11-1.27.26-1.87.47h0c-.67.63-1.65,1.82-1.83,3.44-.18,1.68.54,3.32,1.3,4.13,1.45,1.58,4.04,1.19,8.47.38,4.22-.77,9.48-1.74,15.74-.7,2.5.41,4.96,1.12,7.35,2.1l2.23-2.54c.28-.32.71-.47,1.13-.39.42.07.77.37.92.76l1.38,3.59c1.57-.04,3.12-.25,4.63-.65,1.15-.3,2.27-.69,3.36-1.19-.21-1.89-.92-3.7-2.07-5.27ZM140.97,130.69c-1.74-2.37-4.29-3.91-7.18-4.35-2.89-.44-5.78.28-8.13,2.03-1.24.92-4.63,3.06-9.18,2.91-3.86-.12-6.73-1.8-8.1-2.8-1.88-1.37-4.1-2.08-6.38-2.08-.59,0-1.18.05-1.77.15-.64.11-1.27.26-1.87.47h0c-.67.63-1.65,1.82-1.83,3.44-.18,1.68.54,3.32,1.3,4.13,1.45,1.58,4.04,1.19,8.47.38,4.22-.77,9.48-1.74,15.74-.7,2.5.41,4.96,1.12,7.35,2.1l2.23-2.54c.28-.32.71-.47,1.13-.39.42.07.77.37.92.76l1.38,3.59c1.57-.04,3.12-.25,4.63-.65,1.15-.3,2.27-.69,3.36-1.19-.21-1.89-.92-3.7-2.07-5.27ZM123.95,148.91c-2.22.19-3.88.86-4.8,1.92-.42.49-.68.96-.99,1.51-.17.3-.34.61-.55.95,5.46-.1,10.14-1.43,13.84-3.04-.77-2.26-2.59-6.1-6.55-8.58-4.54-2.83-11.7-3.64-16.62.29-2.46,1.97-5.03,5.65-4.94,8.68.02.72.19,1.4.56,2.02.26.43.58.81.97,1.15,1.65,1.45,4.32,1.98,6.34,1.51.17-.04.33-.09.49-.14,1.04-.34,2.12-1.16,2.89-1.96.17-.18.33-.36.47-.52.43-.53.71-1.02,1-1.55.34-.61.7-1.24,1.28-1.92,1.36-1.57,3.52-2.5,6.43-2.75.67-.05,1.26.44,1.32,1.11.06.67-.44,1.26-1.11,1.32ZM123.95,148.91c-2.22.19-3.88.86-4.8,1.92-.42.49-.68.96-.99,1.51-.17.3-.34.61-.55.95,5.46-.1,10.14-1.43,13.84-3.04-.77-2.26-2.59-6.1-6.55-8.58-4.54-2.83-11.7-3.64-16.62.29-2.46,1.97-5.03,5.65-4.94,8.68.02.72.19,1.4.56,2.02.26.43.58.81.97,1.15,1.65,1.45,4.32,1.98,6.34,1.51.17-.04.33-.09.49-.14,1.04-.34,2.12-1.16,2.89-1.96.17-.18.33-.36.47-.52.43-.53.71-1.02,1-1.55.34-.61.7-1.24,1.28-1.92,1.36-1.57,3.52-2.5,6.43-2.75.67-.05,1.26.44,1.32,1.11.06.67-.44,1.26-1.11,1.32ZM140.97,130.69c-1.74-2.37-4.29-3.91-7.18-4.35-2.89-.44-5.78.28-8.13,2.03-1.24.92-4.63,3.06-9.18,2.91-3.86-.12-6.73-1.8-8.1-2.8-1.88-1.37-4.1-2.08-6.38-2.08-.59,0-1.18.05-1.77.15-.64.11-1.27.26-1.87.47h0c-.67.63-1.65,1.82-1.83,3.44-.18,1.68.54,3.32,1.3,4.13,1.45,1.58,4.04,1.19,8.47.38,4.22-.77,9.48-1.74,15.74-.7,2.5.41,4.96,1.12,7.35,2.1l2.23-2.54c.28-.32.71-.47,1.13-.39.42.07.77.37.92.76l1.38,3.59c1.57-.04,3.12-.25,4.63-.65,1.15-.3,2.27-.69,3.36-1.19-.21-1.89-.92-3.7-2.07-5.27ZM140.97,130.69c-1.74-2.37-4.29-3.91-7.18-4.35-2.89-.44-5.78.28-8.13,2.03-1.24.92-4.63,3.06-9.18,2.91-3.86-.12-6.73-1.8-8.1-2.8-1.88-1.37-4.1-2.08-6.38-2.08-.59,0-1.18.05-1.77.15-.64.11-1.27.26-1.87.47h0c-.67.63-1.65,1.82-1.83,3.44-.18,1.68.54,3.32,1.3,4.13,1.45,1.58,4.04,1.19,8.47.38,4.22-.77,9.48-1.74,15.74-.7,2.5.41,4.96,1.12,7.35,2.1l2.23-2.54c.28-.32.71-.47,1.13-.39.42.07.77.37.92.76l1.38,3.59c1.57-.04,3.12-.25,4.63-.65,1.15-.3,2.27-.69,3.36-1.19-.21-1.89-.92-3.7-2.07-5.27ZM123.95,148.91c-2.22.19-3.88.86-4.8,1.92-.42.49-.68.96-.99,1.51-.17.3-.34.61-.55.95,5.46-.1,10.14-1.43,13.84-3.04-.77-2.26-2.59-6.1-6.55-8.58-4.54-2.83-11.7-3.64-16.62.29-2.46,1.97-5.03,5.65-4.94,8.68.02.72.19,1.4.56,2.02.26.43.58.81.97,1.15,1.65,1.45,4.32,1.98,6.34,1.51.17-.04.33-.09.49-.14,1.04-.34,2.12-1.16,2.89-1.96.17-.18.33-.36.47-.52.43-.53.71-1.02,1-1.55.34-.61.7-1.24,1.28-1.92,1.36-1.57,3.52-2.5,6.43-2.75.67-.05,1.26.44,1.32,1.11.06.67-.44,1.26-1.11,1.32ZM123.95,148.91c-2.22.19-3.88.86-4.8,1.92-.42.49-.68.96-.99,1.51-.17.3-.34.61-.55.95,5.46-.1,10.14-1.43,13.84-3.04-.77-2.26-2.59-6.1-6.55-8.58-4.54-2.83-11.7-3.64-16.62.29-2.46,1.97-5.03,5.65-4.94,8.68.02.72.19,1.4.56,2.02.26.43.58.81.97,1.15,1.65,1.45,4.32,1.98,6.34,1.51.17-.04.33-.09.49-.14,1.04-.34,2.12-1.16,2.89-1.96.17-.18.33-.36.47-.52.43-.53.71-1.02,1-1.55.34-.61.7-1.24,1.28-1.92,1.36-1.57,3.52-2.5,6.43-2.75.67-.05,1.26.44,1.32,1.11.06.67-.44,1.26-1.11,1.32ZM140.97,130.69c-1.74-2.37-4.29-3.91-7.18-4.35-2.89-.44-5.78.28-8.13,2.03-1.24.92-4.63,3.06-9.18,2.91-3.86-.12-6.73-1.8-8.1-2.8-1.88-1.37-4.1-2.08-6.38-2.08-.59,0-1.18.05-1.77.15-.64.11-1.27.26-1.87.47h0c-.67.63-1.65,1.82-1.83,3.44-.18,1.68.54,3.32,1.3,4.13,1.45,1.58,4.04,1.19,8.47.38,4.22-.77,9.48-1.74,15.74-.7,2.5.41,4.96,1.12,7.35,2.1l2.23-2.54c.28-.32.71-.47,1.13-.39.42.07.77.37.92.76l1.38,3.59c1.57-.04,3.12-.25,4.63-.65,1.15-.3,2.27-.69,3.36-1.19-.21-1.89-.92-3.7-2.07-5.27ZM140.97,130.69c-1.74-2.37-4.29-3.91-7.18-4.35-2.89-.44-5.78.28-8.13,2.03-1.24.92-4.63,3.06-9.18,2.91-3.86-.12-6.73-1.8-8.1-2.8-1.88-1.37-4.1-2.08-6.38-2.08-.59,0-1.18.05-1.77.15-.64.11-1.27.26-1.87.47h0c-.67.63-1.65,1.82-1.83,3.44-.18,1.68.54,3.32,1.3,4.13,1.45,1.58,4.04,1.19,8.47.38,4.22-.77,9.48-1.74,15.74-.7,2.5.41,4.96,1.12,7.35,2.1l2.23-2.54c.28-.32.71-.47,1.13-.39.42.07.77.37.92.76l1.38,3.59c1.57-.04,3.12-.25,4.63-.65,1.15-.3,2.27-.69,3.36-1.19-.21-1.89-.92-3.7-2.07-5.27ZM123.95,148.91c-2.22.19-3.88.86-4.8,1.92-.42.49-.68.96-.99,1.51-.17.3-.34.61-.55.95,5.46-.1,10.14-1.43,13.84-3.04-.77-2.26-2.59-6.1-6.55-8.58-4.54-2.83-11.7-3.64-16.62.29-2.46,1.97-5.03,5.65-4.94,8.68.02.72.19,1.4.56,2.02.26.43.58.81.97,1.15,1.65,1.45,4.32,1.98,6.34,1.51.17-.04.33-.09.49-.14,1.04-.34,2.12-1.16,2.89-1.96.17-.18.33-.36.47-.52.43-.53.71-1.02,1-1.55.34-.61.7-1.24,1.28-1.92,1.36-1.57,3.52-2.5,6.43-2.75.67-.05,1.26.44,1.32,1.11.06.67-.44,1.26-1.11,1.32ZM140.97,130.69c-1.74-2.37-4.29-3.91-7.18-4.35-2.89-.44-5.78.28-8.13,2.03-1.24.92-4.63,3.06-9.18,2.91-3.86-.12-6.73-1.8-8.1-2.8-1.88-1.37-4.1-2.08-6.38-2.08-.59,0-1.18.05-1.77.15-.64.11-1.27.26-1.87.47h0c-.67.63-1.65,1.82-1.83,3.44-.18,1.68.54,3.32,1.3,4.13,1.45,1.58,4.04,1.19,8.47.38,4.22-.77,9.48-1.74,15.74-.7,2.5.41,4.96,1.12,7.35,2.1l2.23-2.54c.28-.32.71-.47,1.13-.39.42.07.77.37.92.76l1.38,3.59c1.57-.04,3.12-.25,4.63-.65,1.15-.3,2.27-.69,3.36-1.19-.21-1.89-.92-3.7-2.07-5.27ZM140.97,130.69c-1.74-2.37-4.29-3.91-7.18-4.35-2.89-.44-5.78.28-8.13,2.03-1.24.92-4.63,3.06-9.18,2.91-3.86-.12-6.73-1.8-8.1-2.8-1.88-1.37-4.1-2.08-6.38-2.08-.59,0-1.18.05-1.77.15-.64.11-1.27.26-1.87.47h0c-.67.63-1.65,1.82-1.83,3.44-.18,1.68.54,3.32,1.3,4.13,1.45,1.58,4.04,1.19,8.47.38,4.22-.77,9.48-1.74,15.74-.7,2.5.41,4.96,1.12,7.35,2.1l2.23-2.54c.28-.32.71-.47,1.13-.39.42.07.77.37.92.76l1.38,3.59c1.57-.04,3.12-.25,4.63-.65,1.15-.3,2.27-.69,3.36-1.19-.21-1.89-.92-3.7-2.07-5.27ZM140.97,130.69c-1.74-2.37-4.29-3.91-7.18-4.35-2.89-.44-5.78.28-8.13,2.03-1.24.92-4.63,3.06-9.18,2.91-3.86-.12-6.73-1.8-8.1-2.8-1.88-1.37-4.1-2.08-6.38-2.08-.59,0-1.18.05-1.77.15-.64.11-1.27.26-1.87.47h0c-.67.63-1.65,1.82-1.83,3.44-.18,1.68.54,3.32,1.3,4.13,1.45,1.58,4.04,1.19,8.47.38,4.22-.77,9.48-1.74,15.74-.7,2.5.41,4.96,1.12,7.35,2.1l2.23-2.54c.28-.32.71-.47,1.13-.39.42.07.77.37.92.76l1.38,3.59c1.57-.04,3.12-.25,4.63-.65,1.15-.3,2.27-.69,3.36-1.19-.21-1.89-.92-3.7-2.07-5.27ZM140.97,130.69c-1.74-2.37-4.29-3.91-7.18-4.35-2.89-.44-5.78.28-8.13,2.03-1.24.92-4.63,3.06-9.18,2.91-3.86-.12-6.73-1.8-8.1-2.8-1.88-1.37-4.1-2.08-6.38-2.08-.59,0-1.18.05-1.77.15-.64.11-1.27.26-1.87.47h0c-.67.63-1.65,1.82-1.83,3.44-.18,1.68.54,3.32,1.3,4.13,1.45,1.58,4.04,1.19,8.47.38,4.22-.77,9.48-1.74,15.74-.7,2.5.41,4.96,1.12,7.35,2.1l2.23-2.54c.28-.32.71-.47,1.13-.39.42.07.77.37.92.76l1.38,3.59c1.57-.04,3.12-.25,4.63-.65,1.15-.3,2.27-.69,3.36-1.19-.21-1.89-.92-3.7-2.07-5.27ZM140.97,130.69c-1.74-2.37-4.29-3.91-7.18-4.35-2.89-.44-5.78.28-8.13,2.03-1.24.92-4.63,3.06-9.18,2.91-3.86-.12-6.73-1.8-8.1-2.8-1.88-1.37-4.1-2.08-6.38-2.08-.59,0-1.18.05-1.77.15-.64.11-1.27.26-1.87.47h0c-.67.63-1.65,1.82-1.83,3.44-.18,1.68.54,3.32,1.3,4.13,1.45,1.58,4.04,1.19,8.47.38,4.22-.77,9.48-1.74,15.74-.7,2.5.41,4.96,1.12,7.35,2.1l2.23-2.54c.28-.32.71-.47,1.13-.39.42.07.77.37.92.76l1.38,3.59c1.57-.04,3.12-.25,4.63-.65,1.15-.3,2.27-.69,3.36-1.19-.21-1.89-.92-3.7-2.07-5.27ZM140.97,130.69c-1.74-2.37-4.29-3.91-7.18-4.35-2.89-.44-5.78.28-8.13,2.03-1.24.92-4.63,3.06-9.18,2.91-3.86-.12-6.73-1.8-8.1-2.8-1.88-1.37-4.1-2.08-6.38-2.08-.59,0-1.18.05-1.77.15-.64.11-1.27.26-1.87.47h0c-.67.63-1.65,1.82-1.83,3.44-.18,1.68.54,3.32,1.3,4.13,1.45,1.58,4.04,1.19,8.47.38,4.22-.77,9.48-1.74,15.74-.7,2.5.41,4.96,1.12,7.35,2.1l2.23-2.54c.28-.32.71-.47,1.13-.39.42.07.77.37.92.76l1.38,3.59c1.57-.04,3.12-.25,4.63-.65,1.15-.3,2.27-.69,3.36-1.19-.21-1.89-.92-3.7-2.07-5.27ZM140.97,130.69c-1.74-2.37-4.29-3.91-7.18-4.35-2.89-.44-5.78.28-8.13,2.03-1.24.92-4.63,3.06-9.18,2.91-3.86-.12-6.73-1.8-8.1-2.8-1.88-1.37-4.1-2.08-6.38-2.08-.59,0-1.18.05-1.77.15-.64.11-1.27.26-1.87.47h0c-.67.63-1.65,1.82-1.83,3.44-.18,1.68.54,3.32,1.3,4.13,1.45,1.58,4.04,1.19,8.47.38,4.22-.77,9.48-1.74,15.74-.7,2.5.41,4.96,1.12,7.35,2.1l2.23-2.54c.28-.32.71-.47,1.13-.39.42.07.77.37.92.76l1.38,3.59c1.57-.04,3.12-.25,4.63-.65,1.15-.3,2.27-.69,3.36-1.19-.21-1.89-.92-3.7-2.07-5.27ZM140.97,130.69c-1.74-2.37-4.29-3.91-7.18-4.35-2.89-.44-5.78.28-8.13,2.03-1.24.92-4.63,3.06-9.18,2.91-3.86-.12-6.73-1.8-8.1-2.8-1.88-1.37-4.1-2.08-6.38-2.08-.59,0-1.18.05-1.77.15-.64.11-1.27.26-1.87.47h0c-.67.63-1.65,1.82-1.83,3.44-.18,1.68.54,3.32,1.3,4.13,1.45,1.58,4.04,1.19,8.47.38,4.22-.77,9.48-1.74,15.74-.7,2.5.41,4.96,1.12,7.35,2.1l2.23-2.54c.28-.32.71-.47,1.13-.39.42.07.77.37.92.76l1.38,3.59c1.57-.04,3.12-.25,4.63-.65,1.15-.3,2.27-.69,3.36-1.19-.21-1.89-.92-3.7-2.07-5.27ZM140.97,130.69c-1.74-2.37-4.29-3.91-7.18-4.35-2.89-.44-5.78.28-8.13,2.03-1.24.92-4.63,3.06-9.18,2.91-3.86-.12-6.73-1.8-8.1-2.8-1.88-1.37-4.1-2.08-6.38-2.08-.59,0-1.18.05-1.77.15-.64.11-1.27.26-1.87.47h0c-.67.63-1.65,1.82-1.83,3.44-.18,1.68.54,3.32,1.3,4.13,1.45,1.58,4.04,1.19,8.47.38,4.22-.77,9.48-1.74,15.74-.7,2.5.41,4.96,1.12,7.35,2.1l2.23-2.54c.28-.32.71-.47,1.13-.39.42.07.77.37.92.76l1.38,3.59c1.57-.04,3.12-.25,4.63-.65,1.15-.3,2.27-.69,3.36-1.19-.21-1.89-.92-3.7-2.07-5.27ZM140.97,130.69c-1.74-2.37-4.29-3.91-7.18-4.35-2.89-.44-5.78.28-8.13,2.03-1.24.92-4.63,3.06-9.18,2.91-3.86-.12-6.73-1.8-8.1-2.8-1.88-1.37-4.1-2.08-6.38-2.08-.59,0-1.18.05-1.77.15-.64.11-1.27.26-1.87.47h0c-.67.63-1.65,1.82-1.83,3.44-.18,1.68.54,3.32,1.3,4.13,1.45,1.58,4.04,1.19,8.47.38,4.22-.77,9.48-1.74,15.74-.7,2.5.41,4.96,1.12,7.35,2.1l2.23-2.54c.28-.32.71-.47,1.13-.39.42.07.77.37.92.76l1.38,3.59c1.57-.04,3.12-.25,4.63-.65,1.15-.3,2.27-.69,3.36-1.19-.21-1.89-.92-3.7-2.07-5.27ZM140.97,130.69c-1.74-2.37-4.29-3.91-7.18-4.35-2.89-.44-5.78.28-8.13,2.03-1.24.92-4.63,3.06-9.18,2.91-3.86-.12-6.73-1.8-8.1-2.8-1.88-1.37-4.1-2.08-6.38-2.08-.59,0-1.18.05-1.77.15-.64.11-1.27.26-1.87.47h0c-.67.63-1.65,1.82-1.83,3.44-.18,1.68.54,3.32,1.3,4.13,1.45,1.58,4.04,1.19,8.47.38,4.22-.77,9.48-1.74,15.74-.7,2.5.41,4.96,1.12,7.35,2.1l2.23-2.54c.28-.32.71-.47,1.13-.39.42.07.77.37.92.76l1.38,3.59c1.57-.04,3.12-.25,4.63-.65,1.15-.3,2.27-.69,3.36-1.19-.21-1.89-.92-3.7-2.07-5.27Z"/>
          <path class="cls-1" d="M120.99,79.28c11.91,0,23.18,4.6,31.72,12.95,3.88,3.8,7.02,8.18,9.33,13.04,2.1,4.4,3.47,9.1,4.07,13.97l.27,2.14,2.02.71c.68.24,1.33.56,1.93.97,1.37.92,2.46,2.25,3.16,3.85.7,1.58,1.03,3.41.99,5.45-.07,3.8-1.47,7.92-3.93,11.61-2.46,3.69-5.72,6.55-9.18,8.06-1.12.49-2.24.83-3.31,1l-1.27.21-.82.99c-3.91,4.72-8.84,8.69-14.25,11.49-6.45,3.33-13.43,5.01-20.72,5.01-25.08,0-45.48-20.51-45.48-45.72,0-11.48,4.27-22.47,12.02-30.93,1.55-1.7,3.25-3.29,5.06-4.75,3.95-3.18,8.35-5.66,13.1-7.37,4.91-1.77,10.06-2.66,15.31-2.66M120.99,75.82c-5.65,0-11.19.97-16.47,2.87-5.1,1.84-9.84,4.51-14.09,7.93-1.94,1.56-3.77,3.28-5.44,5.11-8.34,9.11-12.93,20.93-12.93,33.28,0,27.12,21.95,49.18,48.93,49.18,7.85,0,15.35-1.81,22.3-5.39,5.85-3.02,11.11-7.26,15.33-12.35,1.36-.22,2.74-.64,4.13-1.24,4.06-1.77,7.86-5.08,10.68-9.32,2.82-4.23,4.42-9.02,4.51-13.47.05-2.55-.38-4.87-1.29-6.92-.97-2.2-2.49-4.03-4.39-5.32-.85-.57-1.76-1.03-2.72-1.36-.65-5.23-2.12-10.29-4.39-15.03-2.49-5.22-5.86-9.94-10.04-14.02-9.18-8.98-21.3-13.93-34.12-13.93h0Z"/>
        </g>
        <g>
          <path class="cls-1" d="M104.87,190.22c1.44.46,2.75,1.09,3.94,1.88,1.19.79,2.18,1.72,2.98,2.78.8,1.06,1.33,2.22,1.59,3.47.26,1.25.19,2.56-.23,3.94-.07.21-.2.36-.4.47-.2.1-.4.12-.61.05l-7.09-2.29c-.39-.13-.66-.31-.8-.55-.14-.24-.23-.58-.26-1.03-.06-.35-.14-.66-.24-.92-.09-.26-.25-.48-.46-.67-.21-.18-.5-.33-.87-.45-.63-.2-1.19-.16-1.69.13-.5.29-.92.96-1.27,2.03l-2.59,8.03,10.32,3.33c.26.08.45.25.57.49.13.24.15.49.07.75l-1.67,5.18c-.08.25-.25.45-.49.57-.24.13-.49.15-.75.07l-18.39-5.93c-.25-.08-.44-.25-.57-.49-.13-.25-.15-.5-.07-.75l4.65-14.43c.69-2.13,1.76-3.73,3.21-4.78,1.45-1.05,3.14-1.63,5.07-1.74,1.93-.11,3.95.18,6.06.86Z"/>
          <path class="cls-1" d="M80.81,176.99c1.82,1.55,3.17,3.18,4.06,4.89.89,1.72,1.25,3.47,1.09,5.26-.17,1.79-.91,3.55-2.24,5.26-.63.78-1.31,1.59-2.03,2.44-.73.85-1.44,1.67-2.13,2.45-1.46,1.57-3.06,2.59-4.81,3.06-1.74.47-3.55.42-5.43-.16-1.88-.57-3.72-1.63-5.54-3.18-1.82-1.55-3.16-3.2-4.03-4.96-.87-1.76-1.21-3.54-1.04-5.34.17-1.8.93-3.54,2.26-5.22.64-.83,1.33-1.67,2.05-2.52.73-.85,1.43-1.64,2.11-2.37,1.48-1.59,3.09-2.61,4.83-3.06,1.74-.45,3.53-.38,5.37.23,1.84.6,3.66,1.68,5.48,3.22ZM76.2,182.42c-.61-.52-1.26-.76-1.94-.71-.68.05-1.36.45-2.04,1.21-.72.77-1.4,1.54-2.07,2.32-.66.78-1.3,1.56-1.91,2.36-.42.53-.69,1.04-.8,1.53-.11.48-.08.93.08,1.34.16.41.45.79.86,1.14.39.33.8.55,1.24.65.44.1.89.06,1.35-.12.46-.18.92-.53,1.38-1.03.67-.74,1.33-1.51,1.99-2.29.66-.78,1.32-1.58,1.98-2.39.63-.81.91-1.55.86-2.22s-.39-1.26-1-1.78Z"/>
          <path class="cls-1" d="M68.38,165.05c.12.24.14.49.05.75-.09.26-.25.45-.49.57l-21.05,10.67c-.24.12-.49.14-.75.05-.26-.09-.45-.25-.57-.49l-4.89-9.64c-1.58-3.13-2.12-5.93-1.6-8.4.52-2.48,2.01-4.33,4.46-5.58,1.46-.74,2.89-1.05,4.3-.93,1.41.12,2.7.52,3.87,1.21l5.4-7.77c.1-.13.2-.22.31-.28.2-.1.4-.11.61-.04.21.07.37.2.47.4l3.38,6.68c.22.43.28.82.17,1.14-.11.33-.22.56-.34.7l-4.8,5.96.68,1.34,6.22-3.15c.24-.12.49-.14.75-.05.26.09.45.25.57.49l3.24,6.39ZM51.4,164.52l-1.21-2.38c-.25-.5-.61-.79-1.07-.87-.46-.08-.91,0-1.35.21-.43.22-.78.54-1.05.96-.26.42-.26.9.02,1.45l1.21,2.38,3.45-1.75Z"/>
          <path class="cls-1" d="M56.93,129.79c.17,2.45-.05,4.6-.66,6.45-.61,1.85-1.62,3.33-3.03,4.45-1.41,1.12-3.25,1.81-5.5,2.06-.99.09-2.07.18-3.24.26-1.17.08-2.27.14-3.32.19-2.17.05-4-.39-5.49-1.33-1.49-.94-2.66-2.29-3.5-4.06-.84-1.77-1.34-3.85-1.5-6.23-.13-1.92-.03-3.66.29-5.22.32-1.56.82-2.91,1.5-4.06.68-1.14,1.49-2.04,2.43-2.69.94-.65,1.96-1.02,3.05-1.12.22-.01.41.05.58.2.17.15.26.33.28.55l.55,8.05c.02.27,0,.48-.07.65-.06.16-.15.31-.26.44-.11.11-.28.26-.5.46-.22.2-.41.47-.57.83-.16.35-.22.83-.18,1.44.06.9.33,1.56.81,1.99.48.43,1.18.64,2.11.63,2.02-.06,4.09-.2,6.2-.42,1.09-.12,1.86-.46,2.31-1,.45-.54.65-1.26.59-2.16-.04-.61-.16-1.14-.36-1.59-.2-.45-.51-.8-.91-1.04-.41-.24-.91-.34-1.52-.3h-.04s.12,1.72.12,1.72c.02.27-.06.5-.24.71-.18.21-.41.32-.67.34l-4.05.27c-.27.02-.5-.06-.71-.24-.21-.18-.32-.4-.34-.67l-.68-10.02c-.02-.27.06-.5.24-.71.18-.21.41-.32.67-.34l4.74-.32c2.19-.15,4.06.26,5.61,1.23,1.55.97,2.78,2.37,3.67,4.2.89,1.83,1.42,3.97,1.59,6.43Z"/>
          <path class="cls-1" d="M56.97,112.21c-.08.25-.25.44-.49.57-.25.12-.5.14-.75.06l-22.41-7.4c-.25-.08-.44-.25-.57-.49-.12-.25-.14-.5-.06-.75l5.87-17.79c.08-.25.25-.44.49-.57.25-.12.5-.14.75-.06l4.89,1.61c.25.08.44.25.57.5.12.25.14.5.06.75l-3.43,10.41,2.19.72,3.18-9.64c.08-.25.25-.44.49-.57.25-.12.5-.14.75-.06l4.51,1.49c.25.08.44.25.57.5.12.25.14.5.06.75l-3.18,9.64,2.19.72,3.53-10.68c.08-.25.25-.44.5-.57.25-.12.5-.14.75-.06l4.89,1.61c.25.08.44.25.57.5.12.25.14.5.06.75l-5.96,18.07Z"/>
          <path class="cls-1" d="M80.07,73.65c-1.75,1.55-3.53,2.66-5.34,3.34-1.8.68-3.58.82-5.35.43s-3.44-1.43-5.04-3.1c-.68-.73-1.4-1.53-2.15-2.39-.76-.86-1.47-1.69-2.15-2.49-1.42-1.76-2.21-3.55-2.37-5.36-.15-1.81.22-3.58,1.11-5.31.89-1.73,2.19-3.34,3.89-4.84,1.17-1.03,2.41-1.89,3.74-2.58,1.32-.69,2.67-1.14,4.05-1.35,1.38-.21,2.72-.1,4.02.33,1.3.43,2.51,1.25,3.62,2.48.14.16.21.36.2.58-.01.22-.1.41-.27.55l-5.59,4.93c-.29.26-.56.39-.8.39-.24,0-.55-.09-.91-.29-.72-.41-1.34-.56-1.86-.45-.52.1-1.02.37-1.5.79-.6.53-.94,1.11-1.02,1.75-.07.63.24,1.39.94,2.26,1.27,1.55,2.62,3.08,4.06,4.6.78.81,1.48,1.22,2.12,1.22.64,0,1.26-.26,1.86-.79.47-.42.79-.89.96-1.43s.09-1.15-.21-1.86c-.18-.39-.25-.71-.2-.94.05-.24.22-.49.51-.74l5.59-4.93c.16-.14.36-.21.58-.2.22.01.41.1.55.27,1.08,1.26,1.74,2.56,2,3.91.26,1.35.2,2.69-.18,4.03-.38,1.34-.99,2.62-1.85,3.84-.85,1.22-1.87,2.35-3.03,3.38Z"/>
          <path class="cls-1" d="M91.08,63.96c-.21.07-.41.05-.61-.05-.2-.1-.33-.25-.4-.46-.03-.09-.05-.18-.05-.25l.4-24.68c-.01-.28.06-.58.23-.92.17-.34.49-.58.95-.74l7.52-2.49c.46-.15.86-.14,1.2.03.34.17.58.37.74.6l15.06,19.56c.05.06.08.14.12.23.07.21.05.41-.05.61-.1.2-.25.33-.46.4l-6.41,2.13c-.44.15-.79.15-1.05.02-.26-.13-.46-.28-.59-.44l-1.59-2.01-7.45,2.47-.07,2.56c0,.21-.07.44-.19.7-.12.26-.41.46-.87.62l-6.41,2.13ZM98.16,50.61l3.92-1.3-4.11-5.79.2,7.09Z"/>
          <path class="cls-1" d="M120.69,55.79c-.27-.02-.49-.14-.67-.35-.18-.21-.26-.45-.23-.72l1.99-23.51c.02-.27.14-.49.35-.67.21-.18.45-.26.72-.23l10.77.91c3.49.3,6.16,1.31,7.99,3.06,1.83,1.74,2.63,3.99,2.4,6.73-.14,1.63-.63,3.01-1.47,4.15-.84,1.14-1.86,2.02-3.07,2.66l3.78,8.68c.06.15.09.29.08.41-.02.22-.11.4-.28.54-.17.14-.37.21-.58.19l-7.46-.63c-.49-.04-.84-.19-1.06-.46-.22-.26-.36-.48-.42-.66l-2.54-7.22-1.49-.13-.59,6.95c-.02.27-.14.49-.35.67-.21.18-.45.26-.72.23l-7.13-.6ZM130.06,41.63l2.66.22c.56.05.99-.11,1.3-.46.31-.35.49-.77.53-1.26.04-.49-.05-.95-.27-1.4-.22-.45-.63-.69-1.24-.75l-2.66-.22-.33,3.86Z"/>
          <path class="cls-1" d="M147.49,59.62c-.24-.12-.41-.31-.5-.57-.09-.26-.08-.51.04-.75l10.36-21.2c.12-.24.31-.41.57-.5.26-.09.51-.08.75.04l6.56,3.21c.24.12.41.31.5.57.09.26.08.51-.04.75l-7.5,15.36,9.09,4.44c.24.12.41.31.5.57.09.26.08.51-.04.75l-2.42,4.96c-.12.24-.31.41-.57.5-.26.09-.51.08-.75-.04l-16.54-8.08Z"/>
          <path class="cls-1" d="M175.43,79.04c-1.61-1.76-2.75-3.55-3.41-5.37-.67-1.81-.8-3.6-.41-5.36.39-1.76,1.35-3.4,2.89-4.93.72-.69,1.5-1.41,2.32-2.17.83-.75,1.64-1.48,2.43-2.16,1.65-1.37,3.37-2.18,5.15-2.43,1.79-.24,3.57.04,5.37.84,1.79.81,3.49,2.09,5.1,3.85,1.61,1.76,2.73,3.57,3.37,5.43.64,1.86.76,3.67.36,5.43-.4,1.77-1.37,3.4-2.9,4.9-.74.74-1.53,1.49-2.35,2.24-.83.75-1.63,1.45-2.4,2.09-1.67,1.39-3.39,2.2-5.18,2.42-1.79.23-3.55-.07-5.3-.9-1.75-.83-3.42-2.13-5.03-3.89ZM180.69,74.24c.54.59,1.15.91,1.83.95.68.04,1.4-.28,2.18-.95.81-.67,1.59-1.35,2.34-2.04.76-.69,1.49-1.39,2.19-2.1.49-.48.81-.95.98-1.42.17-.47.2-.91.09-1.34-.11-.43-.35-.84-.71-1.24-.34-.38-.73-.65-1.15-.8-.42-.16-.88-.17-1.36-.05-.48.12-.98.41-1.5.85-.75.65-1.51,1.33-2.26,2.02s-1.51,1.4-2.27,2.12c-.72.72-1.1,1.42-1.13,2.09-.03.67.22,1.3.77,1.9Z"/>
          <path class="cls-1" d="M192.05,112.28c-.45-2.42-.49-4.58-.1-6.48.39-1.91,1.22-3.5,2.49-4.78,1.27-1.28,3.01-2.17,5.22-2.69.98-.21,2.04-.42,3.19-.63,1.15-.21,2.24-.41,3.27-.58,2.15-.3,4.02-.08,5.61.68,1.59.75,2.91,1.96,3.95,3.63,1.04,1.66,1.78,3.67,2.22,6.01.35,1.89.46,3.63.33,5.22-.14,1.59-.48,2.99-1.02,4.2-.54,1.22-1.24,2.2-2.1,2.96-.86.76-1.83,1.25-2.9,1.47-.22.04-.42,0-.6-.13-.19-.13-.3-.3-.34-.51l-1.48-7.93c-.05-.26-.05-.48,0-.65.04-.17.11-.32.21-.47.1-.12.25-.29.44-.51.19-.22.35-.52.47-.89.12-.37.12-.85,0-1.45-.17-.89-.51-1.51-1.04-1.89-.53-.37-1.25-.5-2.17-.37-2,.3-4.03.68-6.1,1.14-1.07.25-1.79.67-2.18,1.26-.38.59-.49,1.33-.33,2.22.11.6.29,1.11.55,1.53.25.42.59.73,1.03.92.43.19.95.23,1.55.12h.04s-.32-1.69-.32-1.69c-.05-.26,0-.51.16-.74.16-.23.36-.37.63-.41l3.99-.75c.26-.05.51,0,.74.16.23.16.37.36.41.63l1.85,9.87c.05.26,0,.51-.16.74-.16.23-.37.37-.63.42l-4.67.87c-2.15.4-4.06.21-5.72-.57-1.66-.78-3.04-2.03-4.14-3.74-1.1-1.71-1.88-3.78-2.33-6.2Z"/>
          <path class="cls-1" d="M193.51,130.12c.03-.27.16-.48.38-.65.22-.17.46-.24.73-.2l23.41,3c.27.03.48.16.65.38.17.22.24.46.2.73l-.95,7.39c-.03.27-.16.48-.38.65-.22.17-.46.24-.73.2l-23.41-3c-.27-.03-.48-.16-.65-.38-.17-.22-.24-.46-.2-.73l.95-7.39Z"/>
          <path class="cls-1" d="M191.51,144.72c.11-.24.3-.41.56-.51.26-.09.51-.09.75.03l21.39,9.97c.24.11.41.3.51.56.09.26.08.51-.03.75l-4.57,9.8c-1.48,3.18-3.36,5.33-5.62,6.45-2.27,1.12-4.65,1.1-7.14-.07-1.48-.69-2.61-1.63-3.39-2.81-.78-1.18-1.26-2.45-1.44-3.79l-9.45.55c-.16,0-.3-.02-.41-.07-.2-.09-.34-.24-.41-.45-.08-.21-.07-.41.02-.61l3.16-6.79c.21-.44.47-.72.79-.84.32-.12.58-.17.76-.17l7.65.1.63-1.36-6.32-2.95c-.24-.11-.41-.3-.51-.56-.09-.26-.08-.51.03-.75l3.03-6.49ZM201.58,158.4l-1.13,2.42c-.24.51-.24.97-.02,1.38.22.41.56.72,1,.93.44.21.91.28,1.4.23.49-.05.87-.35,1.13-.9l1.13-2.42-3.51-1.64Z"/>
          <path class="cls-1" d="M170.91,175.47c1.77-1.61,3.55-2.74,5.37-3.41,1.82-.66,3.6-.8,5.36-.41,1.76.39,3.4,1.36,4.93,2.89.69.72,1.41,1.5,2.17,2.33.75.83,1.47,1.64,2.16,2.43,1.37,1.65,2.18,3.37,2.42,5.16.24,1.79-.04,3.57-.85,5.36-.81,1.79-2.09,3.49-3.86,5.09-1.76,1.61-3.58,2.73-5.43,3.36-1.86.64-3.67.75-5.43.35-1.77-.4-3.4-1.37-4.89-2.91-.74-.74-1.49-1.53-2.24-2.35-.75-.83-1.45-1.63-2.09-2.4-1.39-1.67-2.19-3.4-2.42-5.18-.23-1.79.08-3.55.91-5.3.83-1.75,2.13-3.42,3.9-5.03ZM175.71,180.74c-.59.54-.91,1.15-.95,1.83-.04.68.27,1.4.94,2.18.67.81,1.35,1.59,2.04,2.35.69.76,1.39,1.49,2.09,2.19.48.49.95.82,1.41.98.47.17.91.2,1.34.09.43-.11.84-.34,1.24-.71.38-.34.65-.73.8-1.15.16-.42.17-.88.05-1.35-.12-.48-.41-.98-.85-1.5-.65-.76-1.33-1.51-2.01-2.27-.69-.76-1.39-1.51-2.12-2.27-.72-.72-1.42-1.1-2.09-1.13s-1.3.22-1.9.76ZM192.11,193.72c.29-.26.56-.25.83.04.13.14.19.3.18.47l.3,5.75c.01.41-.02.71-.11.89-.09.18-.23.36-.43.54l-5.29,4.82c-.34.31-.68.29-1.01-.07-.11-.13-.17-.28-.16-.45l1-6.88c.03-.26.08-.5.16-.74.08-.24.26-.49.55-.75l3.97-3.61Z"/>
          <path class="cls-1" d="M157.54,186.32c.25-.09.5-.07.75.05.25.12.42.31.5.56l7.77,22.28c.09.25.07.5-.05.75-.12.25-.31.42-.56.5l-5.45,1.9c-.46.16-.83.17-1.11.04-.28-.13-.47-.25-.58-.34l-9.16-7.52,3.29,9.42c.09.25.07.5-.05.75-.12.25-.31.42-.56.5l-6.24,2.18c-.25.09-.5.07-.75-.05-.25-.12-.42-.31-.5-.56l-7.77-22.28c-.09-.25-.07-.5.05-.75.12-.25.31-.42.56-.5l5.45-1.9c.46-.16.83-.17,1.11-.02.28.15.48.25.58.32l8.9,6.76-3.02-8.66c-.09-.25-.07-.5.05-.75.12-.25.31-.42.56-.5l6.24-2.18Z"/>
        </g>
      </g>
    </g>
  </g>
</svg>